#define mstate_12_width 19
#define mstate_12_height 12
static unsigned char mstate_12_bits[] = {
   0x00, 0xe0, 0x03, 0x10, 0x20, 0x02, 0x38, 0x20, 0x02, 0x10, 0x20, 0x02,
   0x92, 0xf0, 0x07, 0xff, 0xf1, 0x07, 0x92, 0x70, 0x07, 0x10, 0x70, 0x07,
   0x38, 0xf0, 0x07, 0x10, 0xf0, 0x07, 0x00, 0xf0, 0x07, 0x00, 0x00, 0x00 };
