#define mstate_02_width 19
#define mstate_02_height 12
static unsigned char mstate_02_bits[] = {
   0x3e, 0x00, 0x00, 0x22, 0x00, 0x00, 0x22, 0x00, 0x00, 0x22, 0x00, 0x00,
   0x7f, 0x00, 0x00, 0x7f, 0x00, 0x00, 0x77, 0x00, 0x00, 0x77, 0x00, 0x00,
   0x7f, 0x00, 0x00, 0x7f, 0x00, 0x00, 0x7f, 0x00, 0x00, 0x00, 0x00, 0x00 };
