#define mstate_10_width 19
#define mstate_10_height 12
static unsigned char mstate_10_bits[] = {
   0x00, 0x00, 0x00, 0x10, 0x00, 0x00, 0x38, 0x00, 0x00, 0x10, 0x00, 0x00,
   0x92, 0x00, 0x00, 0xff, 0x01, 0x00, 0x92, 0x00, 0x00, 0x10, 0x00, 0x00,
   0x38, 0x00, 0x00, 0x10, 0x00, 0x00, 0x00, 0x00, 0x00, 0x00, 0x00, 0x00 };
