#define mstate_11_width 19
#define mstate_11_height 12
static unsigned char mstate_11_bits[] = {
   0x00, 0xe0, 0x03, 0x10, 0x20, 0x02, 0x38, 0x20, 0x02, 0x10, 0x20, 0x02,
   0x92, 0xf0, 0x07, 0xff, 0x11, 0x04, 0x92, 0x90, 0x04, 0x10, 0x90, 0x04,
   0x38, 0x10, 0x04, 0x10, 0x10, 0x04, 0x00, 0xf0, 0x07, 0x00, 0x00, 0x00 };
