#define mstate_xx_width 19
#define mstate_xx_height 12
static unsigned char mstate_xx_bits[] = {
   0x00, 0x00, 0x00, 0x7c, 0x00, 0x00, 0xc6, 0x00, 0x00, 0x82, 0x00, 0x00,
   0xc4, 0x00, 0x00, 0x60, 0x00, 0x00, 0x30, 0x00, 0x00, 0x10, 0x00, 0x00,
   0x10, 0x00, 0x00, 0x00, 0x00, 0x00, 0x10, 0x00, 0x00, 0x00, 0x00, 0x00 };
