#define mstate_01_width 19
#define mstate_01_height 12
static unsigned char mstate_01_bits[] = {
   0x3e, 0x00, 0x00, 0x22, 0x00, 0x00, 0x22, 0x00, 0x00, 0x22, 0x00, 0x00,
   0x7f, 0x00, 0x00, 0x41, 0x00, 0x00, 0x49, 0x00, 0x00, 0x49, 0x00, 0x00,
   0x41, 0x00, 0x00, 0x41, 0x00, 0x00, 0x7f, 0x00, 0x00, 0x00, 0x00, 0x00 };
